<?xml version="1.0" encoding="utf-8"?>
<!-- Generator: Adobe Illustrator 26.0.0, SVG Export Plug-In . SVG Version: 6.00 Build 0)  -->
<svg version="1.1" id="图层_1" xmlns="http://www.w3.org/2000/svg" xmlns:xlink="http://www.w3.org/1999/xlink" x="0px" y="0px"
	 viewBox="0 0 1136.4 185" style="enable-background:new 0 0 1136.4 185;" xml:space="preserve">
<style type="text/css">
	.st0{font-family:'NewYork';}
	.st1{font-size:158.6346px;}
	.st2{fill:none;stroke:#000000;stroke-width:0.5;stroke-miterlimit:10;}
	.st3{enable-background:new    ;}
</style>
<text transform="matrix(1.1111 0 0 1 0.793 141.1992)" class="st0 st1">Quietly</text>
<path class="st2" d="M98.4,136.1l26.1,8.2l-3.7,7.3L93.5,138c-7.2,2.7-15.2,4.1-23.4,4.1c-34.9,0-64-25.5-64-56.8
	c0-31.4,29.1-56.8,64-56.8c34.7,0,64,25.4,64,56.8C134,107.6,119.4,126.8,98.4,136.1z M91.7,137.1l-9.9-4.9l0.5-1.1l13.6,4.3
	c23.1-10.9,29.6-37.6,21.2-63c-9.5-27.9-35.6-48.1-65-40S13.5,70.3,23,98.2c9.5,28.1,35.6,48.2,65,40.1
	C89.3,138,90.5,137.6,91.7,137.1z"/>
<path class="st2" d="M230.3,141.2h-18v-38.5c-2.3,17.9-8.3,39.5-31.2,39.5c-16.2,0-29.1-9.2-29.1-27.9V77.1c0-5.6-0.5-7.1-3.9-7.6
	c0-0.3,0-1.1,0-1.1l16.6-3.5h1.2v51.7c0,13.8,7.9,25.2,23.1,22.7c19.7-3.5,23.3-36.6,23.3-50V77.1c0-5.6-0.5-7.1-3.9-7.6
	c0-0.3,0-1.1,0-1.1l16.6-3.5h1.2v65.8c0,5.6,1.2,7.9,4.1,9.4C230.3,140.4,230.3,141.2,230.3,141.2z"/>
<path class="st2" d="M264.5,140.1c0,0.3,0,1.1,0,1.1h-21.9c0,0,0-0.8,0-1.1c2.6-1.4,3.9-3.8,3.9-9.4V77.1c0-5.6-0.5-7.1-3.9-7.6
	c0-0.3,0-1.1,0-1.1l16.6-3.5h1.2v65.8C260.4,136.3,261.7,138.7,264.5,140.1z M244.7,44.6c0-4.1,3.7-7.5,8.3-7.5s8.3,3.3,8.3,7.5
	c0,4.1-3.7,7.5-8.3,7.5S244.7,48.7,244.7,44.6z"/>
<path class="st2" d="M362.6,116c-1.1,11.3-12.2,26.2-37.2,26.2c-24.3,0-47.8-10.8-48.5-37c-0.9-27.4,26.8-39.3,46.2-40.3
	c15-0.6,35.6,5.9,38.1,25.1c-1.6,0-12.5,0-12.5,0h-3.9C354.9,92.3,364.1,101.5,362.6,116z M337.6,90H292c-2.3,8.4-1.8,17.8,1.2,25.4
	c6.5,16.7,19.7,24,37.7,23.3c15.2-0.6,28.4-10,30.1-22.4C363.2,99.8,351,90,337.6,90z M292.3,88.7h56.2c-2.3-13.8-16-24.9-33.3-21.9
	C303.2,68.9,295.5,77.9,292.3,88.7z"/>
<path class="st2" d="M438.4,113.4c-3.3,14.9-10.8,28.7-29.3,28.7c-15.7,0-25.4-9.2-25.4-27.9V66.2h-10.4v-1.3
	c15,0,16.2-14.1,16.2-21.7h13.9c0,12.2-13.4,21.3-24,21.7h39v1.3h-20.8v50.4c0,13.8,4.2,24.4,19.2,22.7c11.6-1.4,17.4-14,20.6-26.2
	L438.4,113.4z"/>
<path class="st2" d="M463.6,140.1c0,0.3,0,1.1,0,1.1H442c0,0,0-0.8,0-1.1c2.6-1.4,3.9-3.8,3.9-9.4V39c0-5.6-0.5-7.1-3.9-7.6
	c0-0.3,0-1.3,0-1.3l16.6-3.3h1.2v103.9C459.8,136.3,461,138.7,463.6,140.1z"/>
<path class="st2" d="M538.4,95.5c0,0-14.1,31.6-20.4,45.7c-6.3,14.3-14.3,26.2-28.2,26.2c-9.5,0-16.4-4-20.8-11.3l13.7-11.3l1.1,0.8
	c-1.8,8.9,0.2,21.1,9.9,20.1c9.2-1,16.4-11.4,22.2-23.2l-22.6-47.7c-7.4-15.5-11.1-22.4-19.6-28.7v-1.3h27v1.3
	c-4.4,4.3-3,8.6,1.1,17.4l21,44.1l14.5-32.4c6.5-14.6,8.6-23.3,0.7-29.2v-1.3h20.8v1.3C551.1,73.1,544.9,80.9,538.4,95.5z"/>
<text transform="matrix(1.1111 0 0 1 558.6523 141.1992)" class="st0 st1">      </text>
<text transform="matrix(1.1111 0 0 1 558.6523 141.1992)" class="st2 st0 st1">      </text>
<text transform="matrix(1.1111 0 0 1 780.7344 141.1992)" class="st0 st1">Pure</text>
<g class="st3">
	<path class="st2" d="M872.2,62.7c0,22.4-23.1,32.4-57.8,32.4h-8.6v35.7c0,5.6,1.2,7.9,3.9,9.4c0,0.3,0,1.1,0,1.1h-21.9
		c0,0,0-0.8,0-1.1c2.8-1.4,4.1-3.8,4.1-9.4V40.8c0-5.7-1.2-7.9-4.1-9.4c0-0.3,0-1.3,0-1.3h26.6C849.1,30.2,872.2,40.2,872.2,62.7z
		 M858.3,62.7c0-18.7-12.2-31.2-43.9-31.2h-8.6v62.3h8.6C846.1,93.8,858.3,81.2,858.3,62.7z"/>
	<path class="st2" d="M964.9,141.2h-18v-38.5c-2.3,17.9-8.3,39.5-31.2,39.5c-16.2,0-29.1-9.2-29.1-27.9V77.1c0-5.6-0.5-7.1-3.9-7.6
		c0-0.3,0-1.1,0-1.1l16.6-3.5h1.2v51.7c0,13.8,7.9,25.2,23.1,22.7c19.7-3.5,23.3-36.6,23.3-50V77.1c0-5.6-0.5-7.1-3.9-7.6
		c0-0.3,0-1.1,0-1.1l16.6-3.5h1.2v65.8c0,5.6,1.2,7.9,4.1,9.4C964.9,140.4,964.9,141.2,964.9,141.2z"/>
	<path class="st2" d="M1041.6,74.3l-10.8,13.6l-1.2-0.6c-0.4-9-5.3-20.8-14.8-19.5c-17.3,2.4-19.6,43.3-19.6,56.8v6.2
		c0,5.6,1.2,7.9,3.9,9.4c0,0.3,0,1.1,0,1.1h-21.9c0,0,0-0.8,0-1.1c2.8-1.4,4.1-3.8,4.1-9.4V77.1c0-5.6-0.5-7.1-4.1-7.6
		c0-0.3,0-1.1,0-1.1l16.6-3.5h1.4v42.5c1.8-19.2,6.7-42.5,25.4-42.5C1030.1,64.9,1035.6,67.9,1041.6,74.3z"/>
	<path class="st2" d="M1131,116c-1.1,11.3-12.2,26.2-37.2,26.2c-24.3,0-47.8-10.8-48.5-37c-0.9-27.4,26.8-39.3,46.2-40.3
		c15-0.6,35.6,5.9,38.1,25.1c-1.6,0-12.5,0-12.5,0h-3.9C1123.2,92.3,1132.4,101.5,1131,116z M1105.9,90h-45.6
		c-2.3,8.4-1.8,17.8,1.2,25.4c6.5,16.7,19.7,24,37.7,23.3c15.2-0.6,28.4-10,30.1-22.4C1131.5,99.8,1119.3,90,1105.9,90z
		 M1060.6,88.7h56.2c-2.3-13.8-16-24.9-33.3-21.9C1071.6,68.9,1063.8,77.9,1060.6,88.7z"/>
</g>
</svg>
